<?xml version="1.0" encoding="UTF-8"?><svg xmlns="http://www.w3.org/2000/svg" xmlns:xlink="http://www.w3.org/1999/xlink" height="452.0" preserveAspectRatio="xMidYMid meet" version="1.0" viewBox="-2.7 -1.8 504.2 452.0" width="504.2" zoomAndPan="magnify"><g data-name="Layer 2"><g data-name="13"><g><g id="change1_1"><path d="M499.65,116.12c-1.24-5.25-5.57-9.4-10.53-11.52s-10.51-2.47-15.9-2.24c-6.22.27-12.75,1.41-17.49,5.44,7-6.39,14.7-14.83,12.35-24-2.19-8.54-12.77-12.71-21.35-10.66s-15.32,8.59-21,15.36a65.55,65.55,0,0,0-8.69,13.58h0c-.17.36-.33.73-.5,1.09-.3-.66-.61-1.31-.93-2A74.26,74.26,0,0,0,407,87.37a.16.16,0,0,0-.22,0h0c-28.68-37.89-79-47.74-120.38-41.14a121.11,121.11,0,0,0-21.53,5.52c.1-.32.21-.63.3-1a39.46,39.46,0,0,0-12.38-40c-4-3.35-8.87-5.92-14.08-6.25s-10.76,1.92-13.47,6.39a10.72,10.72,0,0,0-1.5,5,34.68,34.68,0,0,0-9.5-11.63c-6.66-5-16.91-6.1-23-.4-3.94,3.69-5.37,9.51-4.74,14.87s3.11,10.33,6,14.89c3.33,5.26,7.58,10.35,13.43,12.45-9-2.89-20.19-5.35-27,1.28-6.31,6.16-4.64,17.4,1.41,23.81s15.09,9,23.77,10.52a66.24,66.24,0,0,0,16.11.77h0c.42,0,.84-.08,1.26-.12a45.31,45.31,0,0,0-4.55,11.25,44.24,44.24,0,0,0-.91,16.57,42.46,42.46,0,0,0,5.29,15.8,39.41,39.41,0,0,0,7.53,9.3v.05a83.88,83.88,0,0,0-2.34,9.93,98.86,98.86,0,0,0-12.53,0,1.22,1.22,0,0,0-.6.23,1.37,1.37,0,0,0-1.77.8,64.07,64.07,0,0,0-2.36,8.31c-.55,2.64-1.12,5.28-1.64,7.93q-1.62,8.37-3.12,16.76t-2.86,16.53c-.29,1.68-.6,3.36-.91,5-.61-.34-1.24-.67-1.86-1h0q-4-2.07-8.12-3.79l-.16-.07c-.84-.34-1.69-.68-2.54-1l-.32-.13c-.85-.31-1.69-.62-2.55-.92l-.21-.07q-2.81-1-5.7-1.79a48.59,48.59,0,0,0,17.37-30.76,35.08,35.08,0,0,0-.17-11.11c-1.36-7.11-5.44-13.41-10.05-19a97.8,97.8,0,0,0-27.23-22.73c-2.95-1.65-5.4-3.37-8.74-3.83a12.37,12.37,0,0,0-3.89.11,14.16,14.16,0,0,0-10.26.23l-5,2.06-4.74,2.06q-4.71,2.1-9.35,4.32c-6.18,3-12.31,6.11-18.37,9.48a267.15,267.15,0,0,0-35.52,23.34A173.27,173.27,0,0,0,46.5,161.26a124.12,124.12,0,0,0-15.36,19.07l-.89,1.35-.84,1.43L27.73,186c-1.08,2-2.1,4-3.11,6.11a85.67,85.67,0,0,0-4.93,13.69c-.31,1.23-.65,2.44-.91,3.7l-.69,3.83-.32,1.92-.21,2-.35,4c-.09,1.33-.07,2.69-.08,4s0,2.71.08,4.07.21,2.71.34,4.07c.07.68.12,1.37.21,2l.33,2a85.3,85.3,0,0,0,10,27.87,122.65,122.65,0,0,0-2.14,14.28,124.77,124.77,0,0,0,9.39,60.37,127.11,127.11,0,0,0,15.46,26.63,125.65,125.65,0,0,0,21.48,22.06,123.61,123.61,0,0,0,26.21,16.19c1.17.52,2.34,1.07,3.52,1.58l3.59,1.42,1.8.71,1.83.62,3.66,1.24a126.62,126.62,0,0,0,15,3.7,124.87,124.87,0,0,0,34.74,1.46l0,.14c.48,0,1,0,1.45,0l-4.29,15.73c-22.73,1.43-38.8,4.93-38.8,9,0,5.36,27.6,9.71,61.66,9.71s61.66-4.35,61.66-9.71c0-4.1-16.21-7.61-39.1-9l-6.6-24.21.21-.1a124.14,124.14,0,0,0,11-5.77l-.07-.12c2.4-1.3,4.77-2.65,7.07-4.1a121.5,121.5,0,0,0,14.57-11h49.24A48.47,48.47,0,0,0,273.76,419c.48,3,1.39,6.23,3.79,8.14,3.11,2.47,7.56,2,11.48,1.34,2.84-4.2,2.66-9.65,3.3-14.68a41.64,41.64,0,0,1,16.23-27.71h1a27.23,27.23,0,0,0-8.3,21.17,25,25,0,0,0,12,19.87,28.85,28.85,0,0,0,9.52,3.27h0c.17.17.34.34.53.51a1.64,1.64,0,0,0,2.37-.15,38.25,38.25,0,0,0,14-1.39l.44.29a1.6,1.6,0,0,0,2.41-1.24,36.45,36.45,0,0,0,21-20.27q8,1.85,15.75,4.42a170.24,170.24,0,0,1,20.05,8.15c1.61.78,3.21,1.55,4.78,2.4s3.14,1.65,4.67,2.54,3.08,1.74,4.58,2.68l4.85,2.91a30,30,0,0,0,6.74,3,28.83,28.83,0,0,0,33.37-41.55,149.41,149.41,0,0,0-4.39-19.86,176.15,176.15,0,0,0-10.25-26.51A229.3,229.3,0,0,0,420.19,308c-2.19-3.25-4.54-6.4-7-9.48-.33-.51-.66-1-1-1.52-.62-.91-1.25-1.86-1.95-2.76a33.46,33.46,0,0,0-4.76-4.91c-.28-.25-.59-.48-.89-.71A163.31,163.31,0,0,0,356.87,254c.68-1.09,1.36-2.18,2-3.28l-.15-.09c1.58-2.65,3.08-5.38,4.47-8.22a30.89,30.89,0,1,0,22.51-53.17,82.94,82.94,0,0,0,3.46-11.43c.59-.07,1.17-.15,1.76-.25a29.74,29.74,0,0,0,8.18-2.5,28.88,28.88,0,0,0,7-4.89,46.6,46.6,0,0,0,5.59-6.26,53.52,53.52,0,0,0,6.59-11.7,38.71,38.71,0,0,0,3.79,4.51A39.44,39.44,0,0,0,463,166c4.9-1.8,9.56-4.73,12.44-9.09s3.7-10.28,1.19-14.85a10.8,10.8,0,0,0-3.58-3.78,34.83,34.83,0,0,0,14.82-2.44C495.48,132.55,501.55,124.23,499.65,116.12Zm-403,74.72,0,.09a35.91,35.91,0,0,0,3.52-1.06l3.6,10-.54.29-.17.08c-1.16.62-2.31,1.26-3.44,1.93l-.14.08q-3.42,2-6.68,4.28l-.13.09c-1.09.76-2.16,1.54-3.22,2.34h0a103.31,103.31,0,0,0-12.84,11.53,16.07,16.07,0,0,1-.59-3.88,24.68,24.68,0,0,1,.37-5.11c.21-.94.4-1.91.66-2.91l.46-1.53.22-.77.29-.79c.35-1,.75-2,1.18-3A116.12,116.12,0,0,1,96.64,190.84Zm-.52-12.32-2.6,1.27c.3-.36.58-.73.88-1.1l1.25-1.47Zm110.21,18.21q1.39-8.41,2.85-16.81T212,163.36c.46-2.76.89-5.54,1.33-8.3a68.16,68.16,0,0,0,.73-7.36c3.9.71,7.86,1.15,11.83,1.5-.09.76-.2,1.52-.28,2.28-.36,2.26-.72,4.71-1.07,7.33-3.36.87-6.66,2.43-8.36,5.41-1.06,1.88,1.3,3.4,2.82,2.18a13.93,13.93,0,0,1,4.9-2.4,241.92,241.92,0,0,0-.6,50.64l-3.64-.51a102.92,102.92,0,0,0-14.36-10.69C205.64,201.2,206,199,206.33,196.73Zm-29.62-46.09c-.1-.16,1-.38.87-.54a41.6,41.6,0,0,1-15.31,30.41c-3.08,2.48-6.65,4.67-9.06,7.7l-1.72,0h-.07c-1.29,0-2.58,0-3.87.08l-.77,0c-1.25.06-2.49.14-3.73.23l-.68.07c-1.21.1-2.42.22-3.61.37l-.27,0c-1.25.16-2.5.35-3.75.55l-.7.12c-1.23.21-2.45.44-3.67.69l-.45.1c-1.19.25-2.37.52-3.55.82l-.3.07c-1.23.32-2.45.65-3.66,1l-.54.16-.24.07-3.29-10.32c1.44-.52,2.9-1,4.36-1.52l0-.11a118.51,118.51,0,0,1,27.77-3.52v-4.71a25.38,25.38,0,0,0,12.76-2.9,27.27,27.27,0,0,0,13.8-18.4Zm-57,2.37c1.55-1.37,3.13-2.71,4.72-4a38.12,38.12,0,0,0,5.92,11.94,1.57,1.57,0,0,0,1.06,2.09l.76.2h0a32.66,32.66,0,0,0,4,3.84A127.61,127.61,0,0,0,120,169.91c-1.72.42-3.43.9-5.13,1.4l-3.41-10.71C114.13,158,116.91,155.49,119.75,153ZM130,402.21a114.86,114.86,0,0,1-13.55-3.31l-3.31-1.11-1.65-.56-1.62-.64-3.25-1.27c-1.07-.46-2.13-.95-3.19-1.43A111.46,111.46,0,0,1,79.7,379.31a114.18,114.18,0,0,1-19.49-19.93,112.56,112.56,0,0,1-21.75-50.87,117.26,117.26,0,0,1-.91-27.89c0-.36.08-.72.11-1.08,2.66,3.35,5.42,6.48,8.23,9.41.94,1,1.9,1.93,2.85,2.87,0,.84,0,1.67,0,2.5,0,.29,0,.58,0,.87,0,1,.09,2.05.17,3.07,0,.11,0,.22,0,.33.08,1.16.19,2.31.32,3.45l.06.57c.12,1.07.26,2.13.41,3.19a1.87,1.87,0,0,0,0,.25c.17,1.2.37,2.39.59,3.58v.05q.33,1.79.72,3.54l0,.08c.53,2.39,1.14,4.74,1.84,7.07h0a102.87,102.87,0,0,0,38.57,54h0c1.16.84,2.35,1.65,3.55,2.43l.21.15q1.77,1.14,3.57,2.22l.26.16c1.22.72,2.45,1.42,3.7,2.09l.13.06c2.55,1.37,5.18,2.64,7.86,3.79l.2.09q1.92.83,3.87,1.56l.44.17c1.27.48,2.56.93,3.86,1.36l.49.16q2,.63,4,1.2l.36.09q4.14,1.14,8.41,1.94l.43.09c1.35.24,2.71.46,4.07.65l.66.09c1.34.18,2.69.34,4,.46l.69.07c1.37.12,2.76.21,4.15.28l.52,0c1.46.06,2.93.1,4.41.1h0v.27a90,90,0,0,0,21.91-1l2.93,8.13A113.84,113.84,0,0,1,130,402.21Zm80.42-15.29a122.35,122.35,0,0,1-23.26,11l-2.44-7.62a96.89,96.89,0,0,0,11.53-4.2h15.5C211.31,386.36,210.87,386.65,210.42,386.92Zm-199.62-35c1.37,1.59-.93,3.91-2.31,2.31A35.79,35.79,0,0,1,4,314.6c1-1.85,3.82-.2,2.83,1.65A32.4,32.4,0,0,0,10.8,351.94Zm9.46-2.11c-5.48-3.75-7.44-10.27-8.21-16.56a61.47,61.47,0,0,1,1.85-23.8,1.63,1.63,0,0,1,3.15.87,59.08,59.08,0,0,0-1.9,21.42c.53,5.48,1.91,11.93,6.76,15.25C23.64,348.19,22,351,20.26,349.83Z" fill="#f8cda2"/></g><g id="change1_2"><path d="M149.1,130.28l-3.66,2.54-3.79,2.71q-3.78,2.76-7.49,5.63c-4.93,3.83-9.77,7.77-14.41,11.85A223.75,223.75,0,0,0,94.4,178.69a125.23,125.23,0,0,0-9.8,13.57,71.19,71.19,0,0,0-6.54,13.26l-.29.79-.22.77-.46,1.53c-.26,1-.45,2-.66,2.91a24.73,24.73,0,0,0-.37,5.11,13.92,13.92,0,0,0,2,7.17,29.2,29.2,0,0,0,5.08,6,62.7,62.7,0,0,0,9.08,6.91c7.33,4.71,16.91,9,27.17,12.72a294.64,294.64,0,0,0,32.89,9.5c11.48,2.66,23.32,4.89,35.3,6.85a47.62,47.62,0,1,1-24.8,91.44l-.62-.25c-13.11-5.14-26.2-10.63-39.25-16.8a369.44,369.44,0,0,1-39-21.17c-12.9-8.21-25.83-17.47-38-30.1a119,119,0,0,1-17-22.12,85.56,85.56,0,0,1-10.82-29.41l-.33-2c-.09-.67-.14-1.36-.21-2-.13-1.36-.25-2.72-.34-4.07s-.07-2.72-.08-4.07,0-2.71.08-4l.35-4,.21-2,.32-1.92.69-3.83c.26-1.26.6-2.47.91-3.7a85.67,85.67,0,0,1,4.93-13.69c1-2.07,2-4.14,3.11-6.11l1.68-2.87.84-1.43.89-1.35A124.12,124.12,0,0,1,46.5,161.26a173.27,173.27,0,0,1,16.81-15.07,266.08,266.08,0,0,1,35.52-23.33c6.06-3.38,12.19-6.51,18.37-9.49q4.65-2.22,9.35-4.32l4.74-2.06,5-2.06a14.23,14.23,0,0,1,13.57,24.84Z" fill="#f8cda2"/></g><g id="change2_1"><path d="M437.89,426.75a23.48,23.48,0,0,1-23.89-15l-1.36-3.57a99.82,99.82,0,0,0-12-22.11H115.78c0-82.46,73.57-149.31,164.32-149.31,59.26,0,111.19,28.51,140.09,71.25a229.3,229.3,0,0,1,23.46,38.26,176.15,176.15,0,0,1,10.25,26.51,145.06,145.06,0,0,1,5.42,28.61A23.46,23.46,0,0,1,437.89,426.75Z" fill="#498463"/></g><g id="change3_1"><path d="M350.05,305.94a35.75,35.75,0,0,0-.86,25.7,41.93,41.93,0,0,0,7.11,10.11,36.86,36.86,0,0,0,4.54,4c1.58,1.2,3.39,2.34,5.12,3.57a156.43,156.43,0,0,1,35.35,36.24,100.61,100.61,0,0,1,11.48,22.54l-.3.11A100.45,100.45,0,0,0,400,386.54a138.56,138.56,0,0,0-16.69-18.63q-4.56-4.29-9.46-8.18c-3.23-2.64-6.53-5.18-9.82-7.75-1.62-1.31-3.32-2.5-5-4a33,33,0,0,1-4.46-4.77,31.93,31.93,0,0,1-5.67-11.49,36.77,36.77,0,0,1-.35-26.41,38.55,38.55,0,0,1,3-6.13,30,30,0,0,1,1.94-2.82l1-1.36c.17-.22.34-.46.52-.68l.59-.62a37,37,0,0,1,10.82-8.39,38.71,38.71,0,0,1,13.21-3.95,34,34,0,0,1,13.77,1.36,25,25,0,0,1,3.26,1.21c.53.23,1.08.44,1.6.69l1.52.83,1.51.84c.49.3,1,.65,1.43,1a33,33,0,0,1,2.76,2.06,33.46,33.46,0,0,1,4.76,4.91c.7.9,1.33,1.85,1.95,2.76s1.25,1.85,1.85,2.79l-.26.21c-1.59-1.55-3.06-3.28-4.64-4.76a38.84,38.84,0,0,0-29.23-10.64,33.81,33.81,0,0,0-22.75,10.55l-.58.57c-.18.2-.34.41-.52.62l-1,1.25a29.16,29.16,0,0,0-1.93,2.6A36.58,36.58,0,0,0,350.05,305.94Z" fill="inherit"/></g><g id="change1_3"><path d="M441.13,378.87l-1.81-.53-6.27-1.84c-2.2-.66-4.43-1.25-6.66-1.81s-4.46-1.11-6.7-1.61-4.49-1-6.73-1.4a219.28,219.28,0,0,0-27.15-3.45,215,215,0,0,0-27.1,0c-2.25.14-4.49.36-6.72.54s-4.46.49-6.68.74l-6.64.95-2,.36a97,97,0,0,0-14.78-3.35c-7.16-1-14.67-1.22-21.44,1.33a35.14,35.14,0,0,0-9.56,5.66A48.56,48.56,0,0,0,273.76,419c.48,3,1.39,6.23,3.79,8.14,3.11,2.47,7.56,2,11.48,1.34,2.84-4.2,2.66-9.65,3.3-14.68a41.63,41.63,0,0,1,17.95-28.94c-.18,0,.19,1,0,1h-.55a27.21,27.21,0,0,0-8.5,21.37,25,25,0,0,0,12,19.87,28.85,28.85,0,0,0,9.52,3.27,38,38,0,0,0,29.32-7.3,37.3,37.3,0,0,0,11.4-14.95q8,1.85,15.75,4.42a170.24,170.24,0,0,1,20.05,8.15c1.61.78,3.21,1.55,4.78,2.4s3.14,1.65,4.67,2.54,3.08,1.74,4.58,2.68l4.85,2.91a30,30,0,0,0,6.74,3,28.83,28.83,0,1,0,16.21-55.33Z" fill="#f8cda2"/></g><g id="change4_1"><path d="M316.49,394.85c.53-2,3.69-1.16,3.15.87-2.95,11.14-3.17,24.47,6,32.87,1.55,1.42-.77,3.73-2.31,2.31-10-9.19-10.09-23.81-6.84-36ZM329.9,399c-.52,10.89-.33,24.26,10.23,30.62,1.81,1.09,3.46-1.74,1.65-2.82-9.43-5.68-9.07-18.22-8.61-27.8.1-2.1-3.17-2.09-3.27,0Z" fill="#ed6d45"/></g><g id="change1_4"><ellipse cx="316.11" cy="267.06" fill="#f8cda2" rx="46.83" ry="38.65" transform="rotate(-80.16 316.08 267.06)"/></g><g id="change4_2"><path d="M349.64,273.48c-10,20.82-32.2,33.17-55.07,25.28s-35.31-32-27.77-53.87,32.2-33.17,55.07-25.28S364.88,241.84,349.64,273.48Z" fill="#ed6d45"/></g><g id="change3_2"><path d="M354.1,253.12a48.22,48.22,0,0,1,2.22,16.07,54.66,54.66,0,0,1-3,16.2,51.55,51.55,0,0,1-7.92,14.72,46.35,46.35,0,0,1-12.71,11.18,37.8,37.8,0,0,1-16.36,5.07A33.45,33.45,0,0,1,299.56,313a35.52,35.52,0,0,1-12.83-10.73,42.74,42.74,0,0,1-4.19-7.09,43.77,43.77,0,0,1-2.62-7.68l.31-.11a51.28,51.28,0,0,0,3.28,7.24,43.92,43.92,0,0,0,4.54,6.52,36.24,36.24,0,0,0,5.74,5.47,33,33,0,0,0,6.81,4,34.45,34.45,0,0,0,7.57,2.29l3.94.42c1.32,0,2.64,0,4-.08A35.16,35.16,0,0,0,331,308.47a44.18,44.18,0,0,0,12-10.3,51.93,51.93,0,0,0,7.91-13.71c.24-.62.51-1.23.73-1.85l.59-1.9a34.1,34.1,0,0,0,1.06-3.84c.27-1.29.6-2.58.82-3.89s.38-2.62.51-4a54.32,54.32,0,0,0-.82-15.84Z" fill="inherit"/></g><g id="change1_5"><path d="M385.71,189.28a83,83,0,1,0-156.84-54.14h0a1.31,1.31,0,0,1,0,.14,82.82,82.82,0,0,0-3.22,16.21c-2.83,17.59-5.72,47.08-.39,77.12.88,5,2.41,8.38,4.44,10.49,8.77,27.82,28.36,48.54,53.92,53,31.54,5.47,62.89-15.46,79.62-49.62a30.89,30.89,0,1,0,22.51-53.17Z" fill="#f8cda2"/></g><g id="change3_3"><path d="M358.88,250.76a111.8,111.8,0,0,1-10.08,14.57c-.9,1.19-2,2.23-2.93,3.35l-1.48,1.66c-.5.55-1.05,1-1.58,1.57-1.06,1-2.1,2.09-3.2,3.1l-3.39,2.9a82.36,82.36,0,0,1-15,9.68,70.43,70.43,0,0,1-17,5.69,59.56,59.56,0,0,1-18,.74,53.2,53.2,0,0,1-8.93-1.66,57.28,57.28,0,0,1-8.51-3.18,62.54,62.54,0,0,1-26.27-23.84l.27-.19a87.62,87.62,0,0,0,12.56,12.19c1.12.92,2.32,1.73,3.49,2.59s2.38,1.63,3.64,2.33a58.93,58.93,0,0,0,7.66,3.94,60.7,60.7,0,0,0,16.49,4.61,54.7,54.7,0,0,0,17.18-.1,68.34,68.34,0,0,0,16.57-5,81,81,0,0,0,14.9-9l3.43-2.73c1.11-.94,2.17-1.95,3.26-2.93.54-.5,1.11-1,1.61-1.49L345,267.9c1-1.07,2.09-2.07,3-3.2a111.91,111.91,0,0,0,10.55-14.11Z" fill="inherit"/></g><g id="change4_3"><path d="M487.83,135.84A34.83,34.83,0,0,1,473,138.28a10.8,10.8,0,0,1,3.58,3.78c2.51,4.57,1.69,10.5-1.19,14.85S467.86,164.2,463,166a38.7,38.7,0,0,1-45.54-15,51.37,51.37,0,0,1-9.89,15.73,31.08,31.08,0,0,1-8.61,6.73,33.13,33.13,0,0,1-11.93,3,75.76,75.76,0,0,1-46.78-11.31c-4.87-3-9.56-6.71-12.94-11.74a21.72,21.72,0,0,1-3.19,1.21c-7.38,2.14-15.16.86-22.64-.74-7.29-1.57-15.08-3.79-19.91-10.28a22.12,22.12,0,0,1-2.75-5c-4.88,2.9-10.79,3.56-16.38,3.89-7.87.47-15.95.58-23.38-2.44-8.26-3.36-15.25-10.62-19-19.72a44.2,44.2,0,0,1-1.24-29.42,43.45,43.45,0,0,1,3.82-8.68,65.88,65.88,0,0,1-18.49-.55c-8.68-1.52-17.71-4.11-23.77-10.52s-7.72-17.65-1.41-23.81c6.79-6.63,18-4.17,27-1.28-5.85-2.1-10.1-7.19-13.43-12.45-2.89-4.56-5.36-9.53-6-14.89s.8-11.18,4.74-14.87c6.07-5.7,16.32-4.59,23,.4a34.68,34.68,0,0,1,9.5,11.63,10.72,10.72,0,0,1,1.5-5c2.71-4.47,8.25-6.71,13.47-6.39s10.07,2.9,14.08,6.25a39.46,39.46,0,0,1,12.38,40c-.09.33-.2.64-.3,1a121.11,121.11,0,0,1,21.53-5.52c41.41-6.61,91.81,3.27,120.47,41.26a75.78,75.78,0,0,1,9.41,16.38,66.27,66.27,0,0,1,9.53-15.37c5.65-6.77,12.4-13.3,21-15.36s19.16,2.12,21.35,10.66c2.35,9.19-5.34,17.63-12.35,24,4.74-4,11.27-5.17,17.49-5.44,5.39-.23,10.94.12,15.9,2.24s9.29,6.27,10.53,11.52C501.55,124.23,495.48,132.55,487.83,135.84Z" fill="#ed6d45"/></g><g id="change1_6"><path d="M424.08,127.54c-1.37-1.92,1.05-4.43,2.21-5.79a33.48,33.48,0,0,1,5.08-4.73,31.67,31.67,0,0,1,6-3.59c1.93-.89,4.53-2.19,6.7-1.72a1.09,1.09,0,0,1,.48,1.81,10,10,0,0,1-3,1.39c-.9.35-1.81.69-2.69,1.09a32,32,0,0,0-5.42,3.17,29.57,29.57,0,0,0-4.58,4.15c-.68.76-1.35,1.53-2,2.35a2,2,0,0,0-.48.88c0,.25.11.68-.13,1a1.63,1.63,0,0,1-.44.43A1.32,1.32,0,0,1,424.08,127.54Zm27.78,10.87c-1.53-1.4-4.58-1-6.53-1-2.27,0-4.53,0-6.8.06-4.71,0-9.45.08-14.14.55a1.14,1.14,0,0,0,0,2.27c4.69.47,9.43.51,14.14.55,2.27,0,4.53.06,6.8.06,1.95,0,5,.42,6.53-1A1.09,1.09,0,0,0,451.86,138.41Zm-17-11.11c-.93.08-1.85.24-2.78.38-1.73.26-3.45.57-5.17.91-1.14.22-.9,2.16.28,2,1.78-.18,3.56-.38,5.33-.62.86-.12,1.72-.21,2.56-.39a11,11,0,0,0,2.6-.72.91.91,0,0,0-.21-1.65A10.86,10.86,0,0,0,434.83,127.3ZM239,33.68c-1.22-1.77-3-4.44-5.31-4.69a.56.56,0,0,0-.55.56c.2,2,2.09,3.82,3.16,5.47a30.37,30.37,0,0,1,3.19,6.37,35.55,35.55,0,0,1,1.72,6.73c.34,2.34.34,4.73.6,7.08a1.29,1.29,0,0,0,2.52.34c1.36-4.88.12-10.6-1.76-15.21A33.52,33.52,0,0,0,239,33.68Zm-4.48,25.17c-1.06-2.16-2.15-4.3-3.23-6.45-1.52-3-3.62-7.58-7.64-7.42a1.14,1.14,0,0,0-.3,2.23,5.49,5.49,0,0,1,3.09,2.69c1,1.64,1.68,3.44,2.49,5.16.92,2,1.82,3.93,2.77,5.87.46.94.94,1.88,1.4,2.82s1.13,2.16,2.22,2.42a1.15,1.15,0,0,0,1.3-.53c.52-1.16,0-2.34-.5-3.44S235.06,60,234.51,58.85Zm-8.62,6.51c-.94,0-1.88,0-2.83,0-1.75,0-3.49.05-5.24.12-3.63.13-7.26.2-10.9.28a1.13,1.13,0,0,0,0,2.26c3.64.08,7.27.15,10.9.28,1.75.07,3.49.1,5.24.12.95,0,1.89,0,2.83,0a3.17,3.17,0,0,0,2.42-.71,1.16,1.16,0,0,0,0-1.62A3.17,3.17,0,0,0,225.89,65.36Zm175.23,54.57a28.2,28.2,0,0,1-.3,13.57c-2.17,7.94-8.84,16.37-17.81,16.12a16.81,16.81,0,0,1-8.35-2.63,16.19,16.19,0,0,1-3.74,2.31c-4.21,1.85-9.95,2.62-14.12.29a1.67,1.67,0,0,1,.84-3.08c2.14-.07,4.27.25,6.42.13a14.73,14.73,0,0,0,6-1.59,11.57,11.57,0,0,0,1.22-.73l-.25-.23c-3.14-3.15-5.59-8.1-3.45-12.45,1.67-3.39,6.19-5.53,9.62-3.43,3.82,2.34,3.9,7.93,2.55,11.69a16.2,16.2,0,0,1-2.2,4.1,14.55,14.55,0,0,0,2.3,1,10.87,10.87,0,0,0,9.76-1.4c5.26-3.53,8.1-10.13,8.43-16.29a27.18,27.18,0,0,0-1.08-9,35.51,35.51,0,0,0-4.21-8.48c-.75-1.23.86-2.17,1.84-1.41C398,111.11,400.16,115.73,401.12,119.93Zm-29.19,18.88a13.41,13.41,0,0,0,2.24,2.77,10.9,10.9,0,0,0,2.15-4.71c.38-2-.07-6.53-3.17-5.28S370.51,136.44,371.93,138.81Z" fill="#f8cda2"/></g><g id="change5_1"><path d="M429.94,129.48a36,36,0,0,1-10.1,24.75,37.12,37.12,0,0,1-2.41-3.27,56.71,56.71,0,0,0,4.05-17.55,65.38,65.38,0,0,0-5.25-29.56c.27-.6.55-1.2.83-1.8C425,109.06,429.94,118.76,429.94,129.48Zm-180.59-71a120.57,120.57,0,0,1,11.23-5.14,35.6,35.6,0,0,0-23,4.24c-9.29,5.35-15.24,14.46-17.34,24.85.79-.06,1.59-.14,2.39-.22C228.76,71.49,239,63.88,249.35,58.47Z" fill="#65a1b7"/></g><g id="change3_4"><path d="M421.07,116.63a67.17,67.17,0,0,0-2.25-7.9,77.25,77.25,0,0,0-3.19-7.55A74.26,74.26,0,0,0,407,87.37a.16.16,0,0,0-.22,0,.17.17,0,0,0,0,.23A75.45,75.45,0,0,1,419.46,117a60.89,60.89,0,0,1,1,15.93,57.14,57.14,0,0,1-3.38,15.51,52.1,52.1,0,0,1-7.61,13.83c-3.24,4.1-7.09,7.91-11.67,10s-10,2.59-15.24,2.76a71.59,71.59,0,0,1-15.8-1.33,76.51,76.51,0,0,1-15.16-4.63,79.09,79.09,0,0,1-13.89-7.65,36.92,36.92,0,0,1-8.32-7.88c.5-.27,1-.54,1.47-.85a23.79,23.79,0,0,0,6.26-5.75,21.74,21.74,0,0,0,3.66-7.76,16.86,16.86,0,0,0-.06-8.72,10.94,10.94,0,0,0-2.15-4.1,7.75,7.75,0,0,0-4.21-2.51,8.07,8.07,0,0,0-4.83.58,12.46,12.46,0,0,0-3.77,2.63,15.2,15.2,0,0,0-4.13,7.87,25.89,25.89,0,0,0,2.75,16.77c.25.49.53,1,.81,1.43a28.57,28.57,0,0,1-10.42,1.7,80.63,80.63,0,0,1-15.89-2.27,45.55,45.55,0,0,1-7.65-2.38,23.68,23.68,0,0,1-6.7-4.18,19.68,19.68,0,0,1-4.8-6.65c.41-.26.82-.51,1.21-.8a21.83,21.83,0,0,0,5.6-6.38,52.09,52.09,0,0,0,3.56-7.48,39,39,0,0,0,2.56-7.89,10.84,10.84,0,0,0-.14-4.35,6.56,6.56,0,0,0-2.46-3.71,6.82,6.82,0,0,0-4.24-1.23,8.21,8.21,0,0,0-4.13,1.33,12.62,12.62,0,0,0-4.54,7A31.11,31.11,0,0,0,276,124a45,45,0,0,0,.52,8.19,31.15,31.15,0,0,0,1.37,5.52c-3.9,2.15-8.54,2.87-13.15,3.2a92.34,92.34,0,0,1-15.95,0,32.28,32.28,0,0,1-14.56-5.07,35.28,35.28,0,0,1-10.62-11.29,40.07,40.07,0,0,1-5.13-14.78A44.55,44.55,0,0,1,219,94a42.52,42.52,0,0,1,6.27-14.5c.71-1.13,1.54-2.17,2.34-3.24.41-.52.86-1,1.28-1.53a19.14,19.14,0,0,1,1.33-1.51,58.76,58.76,0,0,1,5.81-5.56,88.54,88.54,0,0,1,13.36-9.09.16.16,0,0,0-.15-.29c-2.43,1.21-4.84,2.48-7.17,3.89a78.88,78.88,0,0,0-6.74,4.63,54.54,54.54,0,0,0-11.48,11.72,44.82,44.82,0,0,0-6.95,15,44.24,44.24,0,0,0-.91,16.57,42.46,42.46,0,0,0,5.29,15.8,38.06,38.06,0,0,0,11.35,12.31,31.48,31.48,0,0,0,7.58,3.8,38.62,38.62,0,0,0,8.24,1.78,86.64,86.64,0,0,0,16.51-.17,44.35,44.35,0,0,0,8.23-1.43,27.83,27.83,0,0,0,4-1.47c.53-.25,1-.54,1.55-.83a1.89,1.89,0,0,1,.09.21,20.85,20.85,0,0,0,4.87,6.72,24.75,24.75,0,0,0,7,4.45,48.64,48.64,0,0,0,7.8,2.62,82,82,0,0,0,16.19,2.7,33.39,33.39,0,0,0,8.32-.69,24.7,24.7,0,0,0,3.31-1,39.26,39.26,0,0,0,9.37,9.27,78.18,78.18,0,0,0,30.38,12.93,75.3,75.3,0,0,0,16.55,1.26,64.85,64.85,0,0,0,8.3-.77,29.74,29.74,0,0,0,8.18-2.5,28.88,28.88,0,0,0,7-4.89,46.6,46.6,0,0,0,5.59-6.26,54.69,54.69,0,0,0,7.74-14.69A56.37,56.37,0,0,0,422.57,133,62.53,62.53,0,0,0,421.07,116.63ZM277.53,132.05a41.27,41.27,0,0,1-.51-8,30.67,30.67,0,0,1,1.11-7.89,11.45,11.45,0,0,1,4.17-6.33,6.22,6.22,0,0,1,6.93,0,5.1,5.1,0,0,1,1.84,3,9.14,9.14,0,0,1,0,3.72,37.54,37.54,0,0,1-2.68,7.46c-2.12,4.89-4.61,9.79-8.83,12.71-.23.17-.48.31-.73.46A31,31,0,0,1,277.53,132.05Zm49.68,18.13a22.83,22.83,0,0,1-2.6-14.68,12.21,12.21,0,0,1,3.24-6.35c1.66-1.7,3.93-2.87,5.92-2.48a4.85,4.85,0,0,1,2.66,1.54,8.14,8.14,0,0,1,1.64,3,14.25,14.25,0,0,1,.16,7.34,20.38,20.38,0,0,1-8.62,12.24c-.48.33-1,.63-1.48.92C327.8,151.23,327.5,150.71,327.21,150.18ZM267.82,181.1c.81,3.4-4.43,4.84-5.24,1.44-1.93-8.16-9.65-13.47-17-16.5a37,37,0,0,0-14-3c-4.14,0-9.25.71-12.59,3.39-1.52,1.22-3.88-.3-2.82-2.18,2.38-4.17,7.9-5.57,12.33-6.16,8.49-1.12,17.35,1.56,24.7,5.73C259.9,167.6,266,173.38,267.82,181.1Zm-11.55,27.22a1.45,1.45,0,0,1-.23.56,2.48,2.48,0,0,1-2.65,1.08c-2.25-.49-4.42-1.43-6.65-2a63.74,63.74,0,0,0-6.55-1.44,64.76,64.76,0,0,0-6.51-.71c-2.3-.15-4.68,0-7-.31-2-.27-1.55-3.06,0-3.58a20.41,20.41,0,0,1,5.85-.78,11.32,11.32,0,0,1-.7-4.44c-.13-4-.23-8.14,1.18-11.8a12.54,12.54,0,0,1,9.23-8,5.89,5.89,0,0,1,2.89.11c1.75.58,3,2.26,4,4a32.35,32.35,0,0,1,3.28,23.36,15.93,15.93,0,0,1,2.71,1.35A2.45,2.45,0,0,1,256.27,208.32Zm101-22.29c2.92,3.19,5.09,6.93,4.55,11.37-.14,1.08-1.83,2-2.4.64a28.5,28.5,0,0,0-7.11-9.79c-5.4-4.79-12-8.16-19.4-7.73a23.41,23.41,0,0,0-9.33,2.58,32.64,32.64,0,0,0-7.8,5.93,2,2,0,0,1-3.18-2.46A22.31,22.31,0,0,1,322.64,178a28,28,0,0,1,23.82.13A35.71,35.71,0,0,1,357.23,186ZM354.58,227a1.54,1.54,0,0,1-.67,2.56,15.22,15.22,0,0,1-6.08-.83c-1.88-.5-3.75-1-5.62-1.53q-5.61-1.58-11.26-3c-3.86-1-7.72-1.87-11.59-2.76s-7.68-1.58-11.28-3.13c-1.34-.58-.53-2.49.68-2.54a28,28,0,0,1,4,.14,5.67,5.67,0,0,1,.17-1.62,21.66,21.66,0,0,1,1.72-5.07,38.62,38.62,0,0,1,6.12-9,20.37,20.37,0,0,1,6.3-5.22,8.59,8.59,0,0,1,7.92,0,10.54,10.54,0,0,1,3.56,4.17,28.14,28.14,0,0,1,1.71,22.66c1.15.3,2.3.6,3.45.92,1.87.51,3.73,1.08,5.58,1.67A13.86,13.86,0,0,1,354.58,227Z" fill="inherit"/></g><g id="change2_2"><path d="M386.61,168.35a5.38,5.38,0,0,0-3.36-1.4l-3.7-.63q-3.71-.62-7.41-1.19Q364.54,164,356.9,163c-10-1.25-20.06-2.21-30.14-2.81-5.66-.34-11.49-.78-17.13-.13a1,1,0,0,0-.17,0,1.44,1.44,0,0,0-1.79,1c-3.13,8.58-5.12,17.63-7.14,26.52-.39,1.69-.75,3.39-1.13,5.09-.73-1.65-3.1-2.95-4.45-3.68a41.69,41.69,0,0,0-6.67-2.85,38,38,0,0,0-11.64-1.86q2.26-7.68,4.68-15.34c1.52-4.86,2.85-9.69,2.88-14.8a2.52,2.52,0,0,0,.7-1.65,2.39,2.39,0,0,0-2.33-2.33q-17.1-2-34.26-3.44c-5.71-.49-11.43-1-17.16-1.28a131.54,131.54,0,0,0-17.19-.32,1.22,1.22,0,0,0-.6.23,1.37,1.37,0,0,0-1.77.8,64.07,64.07,0,0,0-2.36,8.31c-.55,2.64-1.12,5.28-1.64,7.93q-1.62,8.37-3.12,16.76t-2.86,16.53c-1,5.61-2.18,11.27-2.77,16.94h0a1,1,0,0,0,.29,1.32l0,0a2.62,2.62,0,0,0,2.4,1l1.36.34c1.4.37,2.8.66,4.22,1,2.84.57,5.69,1.08,8.53,1.61,5.53,1,11.08,1.89,16.62,2.81s11.1,1.77,16.65,2.65c2.88.46,5.76.83,8.64,1.25,1.43.2,2.86.47,4.29.71l1,.17a13.26,13.26,0,0,1,1.07-3,14.11,14.11,0,0,1,4.68-5.29c.4-2.22.82-4.43,1.28-6.63,1-4.67,2.08-9.3,3.28-13.9.66-2.53,1.35-5,2.06-7.55a37.24,37.24,0,0,1,11.59,1.46,34.23,34.23,0,0,1,5.86,2.29c1,.5,2,1,3,1.5s2,1,3.06.58a1.4,1.4,0,0,0,.17-.09q-2.18,9.88-4.33,19.78c-1,4.66-2.61,9.55-2.54,14.36a1.84,1.84,0,0,0,1.13,2.84c10.45,2.45,20.89,5,31.36,7.28l15.6,3.46,7.92,1.75c1.24.28,2.47.55,3.71.81a9.3,9.3,0,0,0,4.37.36,1.75,1.75,0,0,0,.52-.24,2.16,2.16,0,0,0,1-.46,8.68,8.68,0,0,0,2.1-3c.66-1.25,1.26-2.5,1.81-3.8q1.57-3.71,3.13-7.44c2-4.75,3.88-9.54,5.77-14.32,3.8-9.63,7.48-19.32,10.85-29.11,1.77-5.17,3.95-10.46,5-15.85A2,2,0,0,0,386.61,168.35Zm-113.67,12.1c-2.87,9.08-5.4,18.25-7.41,27.57q-.84,3.9-1.55,7.83c-.25,1.39-.46,2.77-.64,4.17,0,.32-.06.62-.07.92l-.72-.1c-1.44-.21-2.88-.41-4.31-.66-2.85-.5-5.71-1-8.57-1.47-5.55-.88-11.1-1.79-16.67-2.62s-11.15-1.71-16.74-2.44c-2.87-.38-5.73-.78-8.6-1.1-1.28-.15-2.56-.29-3.84-.37,1-5.09,1.66-10.32,2.51-15.45q1.39-8.41,2.85-16.81T212,163.36c.46-2.76.89-5.54,1.33-8.3a68.16,68.16,0,0,0,.73-7.36c8.6,1.56,17.5,1.87,26.21,2.61q13.54,1.14,27.06,2.67,6.78.78,13.55,1.66a66.24,66.24,0,0,1-3.37,12.22C275.92,171.37,274.38,175.89,272.94,180.45Zm104.91,3c-1.92,4.79-3.81,9.59-5.73,14.38-3.85,9.63-7.7,19.26-11.65,28.85-1.14,2.76-2.27,5.52-3.41,8.27-.55,1.3-1.09,2.58-1.54,3.92-.21.64-.45,1.29-.65,2a44.91,44.91,0,0,0-5.51-1.22l-7.94-1.72-15.61-3.4c-9.82-2.13-19.67-4.1-29.52-6.12,1.42-3.36,2-7.08,2.8-10.64,1-4.5,1.92-9,2.85-13.51,1.88-9.05,3.6-18.12,5.5-27.16,1-4.63,2-9.25,2.84-13.91,4.55.78,9.22,1,13.8,1.35,5.09.38,10.16.83,15.24,1.32,10,1,20,2.12,30,3.61,2.74.41,5.48.85,8.21,1.3l4.23.72,1,.17C380.82,175.46,379.42,179.58,377.85,183.49Z" fill="#498463"/></g><g id="change4_4"><path d="M301.77,248.24c.19,1.4-1.46,2.43-2.5,3a16.65,16.65,0,0,1-4.09,1.52,69.45,69.45,0,0,1-10.42,1.71,72.09,72.09,0,0,1-21.63-1.34c-2.06-.44-1.18-3.59.87-3.15a69.3,69.3,0,0,0,18.46,1.4,66.78,66.78,0,0,0,9.23-1.19,37.54,37.54,0,0,0,4-1,9.85,9.85,0,0,0,1.72-.7,7.2,7.2,0,0,0,.7-.42,3.68,3.68,0,0,0,.34-.26,1.31,1.31,0,0,1,1.54-1.26h.12A1.71,1.71,0,0,1,301.77,248.24Zm-35.68-12.68a12.45,12.45,0,0,1,9.42-19.17c2.08-.18,2.1-3.45,0-3.27a15.71,15.71,0,0,0-12.24,24.09C264.38,239,267.2,237.36,266.09,235.56Zm9.7-9.76a1.66,1.66,0,0,0-1.63,1.64c.16,3,.31,5.93.47,8.89a1.64,1.64,0,1,0,3.27,0c-.16-3-.32-5.93-.47-8.89A1.67,1.67,0,0,0,275.79,225.8Zm44,26.9-.31-.24a1.5,1.5,0,0,0-.75-.2h-.56a1.06,1.06,0,0,0-.58.13,1.14,1.14,0,0,0-.48.31,1.08,1.08,0,0,0-.31.48,1.15,1.15,0,0,0-.13.58l.06.4a1.47,1.47,0,0,0,.38.66l.3.23a1.48,1.48,0,0,0,.76.21h.56a1.17,1.17,0,0,0,.58-.13,1.14,1.14,0,0,0,.48-.31,1.24,1.24,0,0,0,.31-.48,1.15,1.15,0,0,0,.13-.58l-.06-.4A1.57,1.57,0,0,0,319.78,252.7Zm10.45-3.39-.05-.4a1.59,1.59,0,0,0-.39-.66l-.3-.24a1.57,1.57,0,0,0-.76-.2h-1.11a1.15,1.15,0,0,0-.58.13,1,1,0,0,0-.48.31,1.14,1.14,0,0,0-.31.48,1.06,1.06,0,0,0-.13.58l.05.4a1.49,1.49,0,0,0,.39.66l.3.24a1.54,1.54,0,0,0,.76.2h1.11a1.15,1.15,0,0,0,.58-.13,1.36,1.36,0,0,0,.79-.79A1.15,1.15,0,0,0,330.23,249.31Zm3.69,8.7-.24-.31a1.45,1.45,0,0,0-.66-.38l-.4-.05a1.41,1.41,0,0,0-.75.2l-1.12.56a1.18,1.18,0,0,0-.42.38,1.26,1.26,0,0,0-.27.51,1.11,1.11,0,0,0,0,.6,1.22,1.22,0,0,0,.17.56l.24.3a1.49,1.49,0,0,0,.66.39l.4.05a1.57,1.57,0,0,0,.76-.2l1.11-.56a1.12,1.12,0,0,0,.42-.39,1.14,1.14,0,0,0,.27-.51,1.18,1.18,0,0,0,0-.59A1.12,1.12,0,0,0,333.92,258Zm-83.45-16.49v.31a1.5,1.5,0,0,0,3,0v-.31A1.5,1.5,0,0,0,250.47,241.52Zm148.65-32a17.2,17.2,0,0,0-15.83,1.73,16.82,16.82,0,0,0-7,11.65,13.83,13.83,0,0,0,.69,7c.05.1.11.18.16.28a6.94,6.94,0,0,1,.34-1.68c1.34-3.73,5.43-5.51,9.18-5.27,3.09.2,8.1,1.35,7.28,5.49-.67,3.35-4.26,5.45-7.25,6.4a14.8,14.8,0,0,1-5.95.72,1.7,1.7,0,0,1-.71,0,2.92,2.92,0,0,1-.72-.25,8.69,8.69,0,0,1-2-.75c-3.11-1.62-4.07-5.18-4.33-8.42a19.85,19.85,0,0,1,27-20C401.94,207.09,401.09,210.24,399.12,209.49Zm-18.67,21.79a9.91,9.91,0,0,0,.24,1.08.84.84,0,0,0,.06.14,8.82,8.82,0,0,0,1.63.08,11.92,11.92,0,0,0,6.51-2.13c.58-.43,2.27-1.84,1.92-2.74s-2.66-1.08-3.39-1.18c-2.35-.33-5.17.16-6.49,2.34A3.82,3.82,0,0,0,380.45,231.28Z" fill="#ed6d45"/></g><g id="change4_5"><path d="M205.17,431.42l-6.75-24.76a125.65,125.65,0,0,0,18.39-9.54,119.41,119.41,0,0,0,23.51-19.82l-7.86-7.55a132.75,132.75,0,0,1-22,17.17,122.35,122.35,0,0,1-23.26,11l-68.94-216c1.47-.44,3-.87,4.45-1.25a118.51,118.51,0,0,1,27.77-3.52V166.23A128.89,128.89,0,0,0,120,169.91c-1.72.42-3.43.9-5.13,1.4l-8.36-26.2-20,6.77,9.6,26.64c-1.62.78-3.23,1.57-4.82,2.41a128.28,128.28,0,0,0-25.1,17.71,126.09,126.09,0,0,0-20,23.33,124.57,124.57,0,0,0-20.26,57.6,124.77,124.77,0,0,0,9.39,60.37,127.11,127.11,0,0,0,15.46,26.63,125.65,125.65,0,0,0,21.48,22.06,123.61,123.61,0,0,0,26.21,16.19c1.17.52,2.34,1.07,3.52,1.58l3.59,1.42,1.8.71,1.83.62,3.66,1.24a126.62,126.62,0,0,0,15,3.7,125.11,125.11,0,0,0,36.29,1.32l-4.37,16c-22.73,1.43-38.8,4.93-38.8,9,0,5.36,27.6,9.71,61.66,9.71s61.66-4.35,61.66-9.71C244.27,436.35,228.06,432.84,205.17,431.42ZM130,402.21a114.86,114.86,0,0,1-13.55-3.31l-3.31-1.11-1.65-.56-1.62-.64-3.25-1.27c-1.07-.46-2.13-.95-3.19-1.43A111.46,111.46,0,0,1,79.7,379.31a114.18,114.18,0,0,1-19.49-19.93,112.56,112.56,0,0,1-21.75-50.87,117.26,117.26,0,0,1-.91-27.89,113,113,0,0,1,18.26-52.26,114,114,0,0,1,40.83-37.52c1.09-.59,2.19-1.15,3.3-1.7L176.28,401A113.84,113.84,0,0,1,130,402.21Z" fill="#ed6d45"/></g><g id="change5_2"><circle cx="151.44" cy="290.9" fill="#65a1b7" r="102.71"/></g><g id="change2_3"><path d="M181.32,293.56l-.63.48a3.21,3.21,0,0,1,3.95,1.17,6.05,6.05,0,0,1,.27,5.12,1.53,1.53,0,0,1-.79,1.06,1.67,1.67,0,0,1-.83,0L176.05,300A5.42,5.42,0,0,1,181.32,293.56Zm9.84-2.11a2.61,2.61,0,0,1,2.22,2.22,4.68,4.68,0,0,0,6.72-6.37c-1.57-2.25-4.83-2.8-6.44-5l-1.88-1.81a23.89,23.89,0,0,0-3.1,9.16,1.85,1.85,0,0,0,.19,1.32C189.35,291.59,190.35,291.36,191.16,291.45Zm-9.26-49.54c-6.16,4.18-9.91,12.28-7.63,19.36.56,1.76,1.46,3.63.77,5.34a11.73,11.73,0,0,1-2.08,2.67c-1.45,1.8-1.87,4.2-2.25,6.5-3.45,21,22.31.68,26.81-5.57a88.54,88.54,0,0,0,11.14-20.87c1-2.74,1.83-6.07.05-8.39-1.23-1.61-3.35-2.21-5.33-2.58C196.06,237,188.07,237.74,181.9,241.91Zm-16.44,57.6a24.56,24.56,0,0,0-.77,3.18c-.43,2.28-.87,4.55-1.31,6.83,1.2,1,3.2.43,4.17-.83a8.35,8.35,0,0,0,1.28-4.51,9.91,9.91,0,0,1,1.09-4.58c.61-1,1.56-1.69,2.23-2.62a2.81,2.81,0,0,0,.37-3.2l-1.76-.65A11.87,11.87,0,0,0,165.46,299.51Zm-2.35,40.29c2.22,2.28,5.58,3.7,8.63,2.81,3.24-.95,5.36-4.17,8.51-5.39s6.92-.17,10.34-.78c6.75-1.2,10.56-8.34,12.77-14.83a116.18,116.18,0,0,0,3.46-12.43c.59-2.73.62-6.4-2-7.4-2.06-.8-4.25.8-5.68,2.48s-2.82,3.71-5,4.16a10.16,10.16,0,0,1-4-.36c-7.48-1.45-15.09,1.7-20.65,6.67a31.14,31.14,0,0,0-5.16,6.32c-1.31,2-5.91,6.13-6.25,8.21a4.5,4.5,0,0,0,.41,2.27C159.63,334.51,160.9,337.52,163.11,339.8Zm7.42-46.75.23.08L171,293ZM159,287.48c-4.88.4-11.82,11.2-14.29,14.88a4.35,4.35,0,0,0-.92,2.11,11.39,11.39,0,0,0,.69,2.82c.14.65.1,1.32.29,1.95.62,2,3.41,2.65,5.27,1.67s2.91-3,3.6-5,1.13-4.1,2.29-5.86C157.48,297.73,168.05,286.75,159,287.48Zm54.22,59.08c-4.41,1.2-8.9,2.55-12.6,5.24s-6.53,7-6.31,11.56c-2.54-4.51-8.77-6-13.61-4.2s-8.33,6.21-10.33,11c-5.6-2.83-13.37.42-15.3,6.39A12.29,12.29,0,0,0,140.78,368c.63,4.24-5.1,6.95-9.15,5.56s-6.81-5.05-10-8A32.25,32.25,0,0,0,97,357.35c-7.49.74-11.39,5.64-12.39,11.54A102.7,102.7,0,0,0,234,352a8.94,8.94,0,0,0-1.1-2.29C229,343.76,220.12,344.7,213.25,346.56Zm19.09-17.82.52-.28c-.77-1.08-2.35.27-2.91,1.47a13.26,13.26,0,0,0-1.7,5.82c.06,2,1.38,4.2,3.4,4.5,2.92.43,4.85-2.87,5.91-5.62q1.16-3,2.3-5.94A34.38,34.38,0,0,0,232.34,328.74ZM89.21,342.11c1.51-1,2-3,1.84-4.79s-.79-3.52-1-5.31a15.88,15.88,0,0,0-.42-3.59c-.82-2.39-3.43-3.58-5.78-4.51l2.45.7a6.11,6.11,0,0,0-11.8,2.69,2.13,2.13,0,0,0,.39,1.21c.44.54,1.22.65,1.76,1.09,1.22,1,.63,2.91.72,4.47.16,2.56,2.34,4.46,4.35,6.05S86.89,343.6,89.21,342.11ZM103,220.45c2.86,1.44,5.95,2.83,9.15,2.56,7.11-.6,11.38-8.82,18.31-10.53,8.17-2,15.94,5.67,24.34,5.16,5.46-.33,10.1-4.06,15.4-5.41s10.74-.25,16.12-.66,11.37-3.15,12.51-8.42a8.36,8.36,0,0,0,0-3.38A102.74,102.74,0,0,0,89.49,209C91.81,214.12,98.57,218.22,103,220.45ZM230,322.34a3.43,3.43,0,0,0,1.58-.87,4.45,4.45,0,0,0,1.72-4.24c-.41-1.55-2.64-2.48-3.72-1.3l.32-.65a5.63,5.63,0,0,0-2.81,3.9C226.88,320.83,228.32,322.64,230,322.34ZM79.09,300.51c4.67-2.92,10.69-1.63,16.08-.52s11.74,1.68,15.71-2.13c3.41-3.28,3.72-8.63,3.09-13.32s-2-9.44-1-14.07c1.69-8.24,10-13.38,18-16,2.59-.85,5.32-1.58,7.46-3.28s3.53-4.7,2.45-7.21a8.06,8.06,0,0,0-2.67-3,32.14,32.14,0,0,0-22.75-6.4c-10.67,1.16-21.61,7.6-31.44,3.32-4.78-2.08-7.67-10.42-10.89-13.4A102.8,102.8,0,0,0,53,320.37a14.28,14.28,0,0,0,7.55-.82,21.48,21.48,0,0,0,9.72-7.33C73.22,308.25,74.91,303.11,79.09,300.51Zm48.47,31.84c-11.07.34-11.75-8.08-19.89-14.34-1.93-1.48-4.38-2.86-6.68-2.06a5.66,5.66,0,0,0-2.73,2.25C95.9,321.58,96,326.33,98,330a17.37,17.37,0,0,0,9.42,7.63c2.5.92,5.48,1.68,6.57,4.11.89,2,.3,4.64,2,6a5.38,5.38,0,0,0,2,.89l7,1.89c2.23.61,4.79,1.16,6.69-.15a6.81,6.81,0,0,0,2.27-3.4,13.81,13.81,0,0,0,.61-9.21C133.51,334.75,130.7,332.26,127.56,332.35Z" fill="#498463"/></g><g id="change3_5"><path d="M235.6,231.54a102.64,102.64,0,0,1,19.66,52.29c.21,2.36.28,4.73.35,7.1l0,3.55,0,1.78-.11,1.78-.22,3.55-.4,3.54-.2,1.78-.29,1.75c-.2,1.18-.37,2.35-.59,3.52a104.49,104.49,0,0,1-9.19,27c-.51,1.08-1.05,2.14-1.65,3.18l-1.74,3.13c-1.27,2-2.47,4.1-3.86,6a102.83,102.83,0,0,1-8.85,11.32A95.87,95.87,0,0,1,218,372.77,103.45,103.45,0,0,1,206.22,381a94.57,94.57,0,0,1-54.78,12.88v-.54A121.33,121.33,0,0,0,178.63,388a109.52,109.52,0,0,0,24.76-11.6c1.89-1.27,3.83-2.46,5.64-3.84.9-.69,1.86-1.3,2.75-2l2.67-2.12c.9-.7,1.74-1.46,2.61-2.19s1.74-1.47,2.55-2.27l2.5-2.32,2.4-2.43a95.61,95.61,0,0,0,8.84-10.42c1.4-1.81,2.6-3.76,3.89-5.65l1.76-2.94c.61-1,1.16-2,1.69-3a101.06,101.06,0,0,0,9.59-25.69c.24-1.13.44-2.26.66-3.39l.33-1.69.25-1.71.49-3.41.31-3.44.16-1.72.07-1.73.13-3.45c0-2.31,0-4.62-.14-6.92a100.79,100.79,0,0,0-5.09-27.2,104.71,104.71,0,0,0-12.29-24.95ZM175.06,414.86a78.89,78.89,0,0,0,12.09-3.21,117.17,117.17,0,0,0,11.63-4.54,124.14,124.14,0,0,0,11-5.77l-.11-.19c-3.7,1.84-7.49,3.5-11.34,5A116.25,116.25,0,0,1,186.65,410c-4,1.09-8,1.8-12,2.74s-8,1.76-12.07,2.75l0,.22A61.26,61.26,0,0,0,175.06,414.86Zm32,25.44.1.31a47.47,47.47,0,0,1-6,2.77,52.07,52.07,0,0,1-6.36,1.87c-4.32,1.08-8.81,1-13.21,1a75.92,75.92,0,0,1-13.13-1.44,49.22,49.22,0,0,1-12.43-4.24l.15-.29a52.19,52.19,0,0,0,12.54,2.92,74.3,74.3,0,0,0,12.82.44c2.13-.22,4.26-.33,6.36-.73l3.16-.44c1-.18,2.1-.33,3.16-.47l1.59-.17,1.58-.27c1.07-.14,2.12-.32,3.2-.43C202.74,440.84,204.87,440.45,207.1,440.3ZM122.64,180.54l.06.21c-2.22.74-4.43,1.5-6.59,2.35s-4.33,1.71-6.44,2.66-4.14,2.11-6.3,2.94a53.39,53.39,0,0,1-6.68,2.23l-.1-.19a28.9,28.9,0,0,1,5.86-4,41.78,41.78,0,0,1,6.58-2.58q3.34-1.14,6.74-2.07C118.05,181.48,120.33,180.94,122.64,180.54Z" fill="inherit"/></g><g id="change1_7"><path d="M196.44,150.13c-1.36-7.11-5.44-13.41-10.05-19a97.8,97.8,0,0,0-27.23-22.73c-2.95-1.65-5.4-3.37-8.74-3.83-4.25-.58-8.48,1.31-12,3.79a37.27,37.27,0,0,0-15.3,26,38,38,0,0,0,9.08,28.82,28.82,28.82,0,0,0,7.76,6.41,24.9,24.9,0,0,0,23.22-.11,27.27,27.27,0,0,0,13.8-18.4l-.29-.47c-.1-.16,1-.38.87-.54a41.6,41.6,0,0,1-15.31,30.41c-4,3.18-8.7,5.87-10.79,10.49,1.51,3.67,3.4,7.73,7.13,9.09,2.88,1,6.09.15,8.92-1a48.58,48.58,0,0,0,29.08-37.84A35.08,35.08,0,0,0,196.44,150.13Z" fill="#f8cda2"/></g><g id="change4_6"><path d="M163.47,147.76c1.45-1.53,3.76.79,2.31,2.31-8.77,9.18-21.23,16.68-34.33,12.93-2-.58-1.16-3.73.86-3.15,12,3.42,23.21-3.77,31.16-12.09Zm-9.91-9.8c-7.91,5.38-18.42,12.27-28.17,7.21-1.87-1-3.52,1.85-1.65,2.82,11,5.7,22.41-1.05,31.47-7.21,1.73-1.17.1-4-1.65-2.82Z" fill="#ed6d45"/></g><g id="change1_8"><path d="M257.7,340.15c-1.56,1.4-3.88-.9-2.31-2.31a20.93,20.93,0,0,0,6.47-19.63c-.44-2.06,2.71-2.93,3.15-.87A24.21,24.21,0,0,1,257.7,340.15Zm16.17-20.81c-.7-2-3.85-1.12-3.15.86,3,8.33-3.62,15.71-8.86,21.34-1.44,1.53.87,3.85,2.31,2.31C270.22,337.36,277.26,328.85,273.87,319.34ZM21.91,347c-4.85-3.32-6.23-9.77-6.76-15.25a59.08,59.08,0,0,1,1.9-21.42,1.63,1.63,0,0,0-3.15-.87,61.47,61.47,0,0,0-1.85,23.8c.77,6.29,2.73,12.81,8.21,16.56C22,351,23.64,348.19,21.91,347Zm-15-30.76c1-1.85-1.83-3.5-2.83-1.65a35.79,35.79,0,0,0,4.45,39.65c1.38,1.6,3.68-.72,2.31-2.31A32.4,32.4,0,0,1,6.87,316.25Z" fill="#f8cda2"/></g></g></g></g></svg>